<svg xmlns="http://www.w3.org/2000/svg" viewBox="0 0 48 48">
  <path fill="#FFC107" d="M43.6 20H24v8h11.3C33.5 33.3 29.3 36 24 36c-6.6 0-12-5.4-12-12s5.4-12 12-12c3 0 5.8 1.1 7.9 3l5.7-5.7C34.1 6.3 29.3 4 24 4 12.9 4 4 12.9 4 24s8.9 20 20 20c11 0 20-8 20-20 0-1.3-.1-2.7-.4-4z"/>
  <path fill="#FF3D00" d="M6.3 14.7l6.6 4.8C14.5 15.1 18.9 12 24 12c3 0 5.8 1.1 7.9 3l5.7-5.7C34.1 6.3 29.3 4 24 4 16.3 4 9.6 8.3 6.3 14.7z"/>
  <path fill="#4CAF50" d="M24 44c5.2 0 9.9-1.9 13.5-5l-6.2-5.2C29.5 35.6 26.9 36 24 36c-5.2 0-9.4-2.7-11.3-6.9l-6.6 5C9.7 39.7 16.3 44 24 44z"/>
  <path fill="#1976D2" d="M43.6 20H24v8h11.3c-.9 2.4-2.5 4.4-4.6 5.8l6.2 5.2C40.8 35.5 44 30.2 44 24c0-1.3-.1-2.7-.4-4z"/>
</svg>
